<?xml version="1.0" encoding="UTF-8" standalone="no"?>
<!DOCTYPE svg PUBLIC "-//W3C//DTD SVG 1.1//EN"
 "http://www.w3.org/Graphics/SVG/1.1/DTD/svg11.dtd">
<!-- Generated by graphviz version 2.43.0 (0)
 -->
<!-- Title: SimpleDataFlow Pages: 1 -->
<svg width="521pt" height="775pt"
 viewBox="0.00 0.00 521.00 775.00" xmlns="http://www.w3.org/2000/svg" xmlns:xlink="http://www.w3.org/1999/xlink">
<g id="graph0" class="graph" transform="scale(1 1) rotate(0) translate(4 771)">
<title>SimpleDataFlow</title>
<polygon fill="white" stroke="transparent" points="-4,4 -4,-771 517,-771 517,4 -4,4"/>
<g id="clust1" class="cluster">
<title>cluster_top</title>
</g>
<g id="clust2" class="cluster">
<title>cluster_client</title>
<polygon fill="#f5f5f5" stroke="#f5f5f5" points="8,-8 8,-363 312,-363 312,-8 8,-8"/>
<text text-anchor="middle" x="160" y="-347.8" font-family="Helvetica,sans-Serif" font-size="14.00">Client&#45;Side</text>
</g>
<g id="clust3" class="cluster">
<title>cluster_google_cloud</title>
<polygon fill="#e3f2fd" stroke="#e3f2fd" points="347,-404 347,-759 486,-759 486,-404 347,-404"/>
<text text-anchor="middle" x="416.5" y="-743.8" font-family="Helvetica,sans-Serif" font-size="14.00">Google Cloud</text>
</g>
<g id="clust4" class="cluster">
<title>cluster_firebase</title>
<polygon fill="#fff3e0" stroke="#fff3e0" points="320,-266 320,-363 452,-363 452,-266 320,-266"/>
<text text-anchor="middle" x="386" y="-347.8" font-family="Helvetica,sans-Serif" font-size="14.00">Firebase</text>
</g>
<!-- User -->
<g id="node1" class="node">
<title>User</title>
<polygon fill="#c5e0b4" stroke="#548235" points="297.5,-599 182.5,-599 182.5,-541 297.5,-541 297.5,-599"/>
<text text-anchor="middle" x="240" y="-566.9" font-family="Helvetica,sans-Serif" font-size="12.00">User</text>
</g>
<!-- GoogleAuth -->
<g id="node2" class="node">
<title>GoogleAuth</title>
<polygon fill="#ffddc1" stroke="#d6802b" points="297.5,-470 182.5,-470 182.5,-412 297.5,-412 297.5,-470"/>
<text text-anchor="middle" x="240" y="-437.9" font-family="Helvetica,sans-Serif" font-size="12.00">Google Auth</text>
</g>
<!-- User&#45;&gt;GoogleAuth -->
<g id="edge1" class="edge">
<title>User&#45;&gt;GoogleAuth</title>
<path fill="none" stroke="black" d="M240,-540.73C240,-540.73 240,-480.16 240,-480.16"/>
<polygon fill="black" stroke="black" points="243.5,-480.16 240,-470.16 236.5,-480.16 243.5,-480.16"/>
<text text-anchor="middle" x="265.5" y="-503" font-family="Helvetica,sans-Serif" font-size="10.00" fill="#555555">authenticates</text>
</g>
<!-- Frontend -->
<g id="node3" class="node">
<title>Frontend</title>
<polygon fill="#fff2cc" stroke="#d6b656" points="192.5,-332 77.5,-332 77.5,-328 73.5,-328 73.5,-324 77.5,-324 77.5,-282 73.5,-282 73.5,-278 77.5,-278 77.5,-274 192.5,-274 192.5,-332"/>
<polyline fill="none" stroke="#d6b656" points="77.5,-328 81.5,-328 81.5,-324 77.5,-324 "/>
<polyline fill="none" stroke="#d6b656" points="77.5,-282 81.5,-282 81.5,-278 77.5,-278 "/>
<text text-anchor="middle" x="135" y="-299.9" font-family="Helvetica,sans-Serif" font-size="12.00">React Web App</text>
</g>
<!-- User&#45;&gt;Frontend -->
<g id="edge4" class="edge">
<title>User&#45;&gt;Frontend</title>
<path fill="none" stroke="black" d="M182.42,-570C155.81,-570 130,-570 130,-570 130,-570 130,-342.08 130,-342.08"/>
<polygon fill="black" stroke="black" points="133.5,-342.08 130,-332.08 126.5,-342.08 133.5,-342.08"/>
<text text-anchor="middle" x="110" y="-438.5" font-family="Helvetica,sans-Serif" font-size="10.00" fill="#555555">uses app</text>
</g>
<!-- GoogleAuth&#45;&gt;Frontend -->
<g id="edge2" class="edge">
<title>GoogleAuth&#45;&gt;Frontend</title>
<path fill="none" stroke="black" d="M187.5,-411.73C187.5,-411.73 187.5,-391.62 187.5,-373.03"/>
<polygon fill="black" stroke="black" points="191,-373 187.5,-363 184,-373 191,-373"/>
<text text-anchor="middle" x="202.5" y="-374" font-family="Helvetica,sans-Serif" font-size="10.00" fill="#555555">grants access</text>
</g>
<!-- FirestoreDB -->
<g id="node9" class="node">
<title>FirestoreDB</title>
<path fill="#ffe6cc" stroke="#d79b00" d="M443.5,-326.73C443.5,-329.64 417.73,-332 386,-332 354.27,-332 328.5,-329.64 328.5,-326.73 328.5,-326.73 328.5,-279.27 328.5,-279.27 328.5,-276.36 354.27,-274 386,-274 417.73,-274 443.5,-276.36 443.5,-279.27 443.5,-279.27 443.5,-326.73 443.5,-326.73"/>
<path fill="none" stroke="#d79b00" d="M443.5,-326.73C443.5,-323.82 417.73,-321.45 386,-321.45 354.27,-321.45 328.5,-323.82 328.5,-326.73"/>
<text text-anchor="middle" x="386" y="-299.9" font-family="Helvetica,sans-Serif" font-size="12.00">Firestore DB</text>
</g>
<!-- GoogleAuth&#45;&gt;FirestoreDB -->
<g id="edge3" class="edge">
<title>GoogleAuth&#45;&gt;FirestoreDB</title>
<path fill="none" stroke="black" d="M297.56,-441C320.69,-441 342,-441 342,-441 342,-441 342,-402.5 342,-373.26"/>
<polygon fill="black" stroke="black" points="345.5,-373 342,-363 338.5,-373 345.5,-373"/>
<text text-anchor="middle" x="324.5" y="-374" font-family="Helvetica,sans-Serif" font-size="10.00" fill="#555555">grants access</text>
</g>
<!-- StateManager -->
<g id="node4" class="node">
<title>StateManager</title>
<polygon fill="#f8cecc" stroke="#b85450" points="251.5,-203 136.5,-203 136.5,-145 251.5,-145 251.5,-203"/>
<text text-anchor="middle" x="194" y="-170.9" font-family="Helvetica,sans-Serif" font-size="12.00">Redux Store</text>
</g>
<!-- Frontend&#45;&gt;StateManager -->
<g id="edge5" class="edge">
<title>Frontend&#45;&gt;StateManager</title>
<path fill="none" stroke="black" d="M155.17,-273.73C155.17,-273.73 155.17,-213.16 155.17,-213.16"/>
<polygon fill="black" stroke="black" points="158.67,-213.16 155.17,-203.16 151.67,-213.16 158.67,-213.16"/>
<text text-anchor="middle" x="146.5" y="-236" font-family="Helvetica,sans-Serif" font-size="10.00" fill="#555555">dispatches actions</text>
</g>
<!-- StateManager&#45;&gt;Frontend -->
<g id="edge6" class="edge">
<title>StateManager&#45;&gt;Frontend</title>
<path fill="none" stroke="black" d="M173.83,-203.27C173.83,-203.27 173.83,-263.84 173.83,-263.84"/>
<polygon fill="black" stroke="black" points="170.33,-263.84 173.83,-273.84 177.33,-263.84 170.33,-263.84"/>
</g>
<!-- IndexDB -->
<g id="node5" class="node">
<title>IndexDB</title>
<path fill="#e1d5e7" stroke="#9673a6" d="M190.5,-68.73C190.5,-71.64 164.73,-74 133,-74 101.27,-74 75.5,-71.64 75.5,-68.73 75.5,-68.73 75.5,-21.27 75.5,-21.27 75.5,-18.36 101.27,-16 133,-16 164.73,-16 190.5,-18.36 190.5,-21.27 190.5,-21.27 190.5,-68.73 190.5,-68.73"/>
<path fill="none" stroke="#9673a6" d="M190.5,-68.73C190.5,-65.82 164.73,-63.45 133,-63.45 101.27,-63.45 75.5,-65.82 75.5,-68.73"/>
<text text-anchor="middle" x="133" y="-41.9" font-family="Helvetica,sans-Serif" font-size="12.00">IndexDB</text>
</g>
<!-- StateManager&#45;&gt;IndexDB -->
<g id="edge9" class="edge">
<title>StateManager&#45;&gt;IndexDB</title>
<path fill="none" stroke="black" d="M154.5,-144.73C154.5,-144.73 154.5,-84.16 154.5,-84.16"/>
<polygon fill="black" stroke="black" points="158,-84.16 154.5,-74.16 151,-84.16 158,-84.16"/>
<text text-anchor="middle" x="101.5" y="-107" font-family="Helvetica,sans-Serif" font-size="10.00" fill="#555555">browser cache</text>
</g>
<!-- StateManager&#45;&gt;FirestoreDB -->
<g id="edge7" class="edge">
<title>StateManager&#45;&gt;FirestoreDB</title>
<path fill="none" stroke="black" d="M212.17,-203.27C212.17,-243.77 212.17,-312 212.17,-312 212.17,-312 318.12,-312 318.12,-312"/>
<polygon fill="black" stroke="black" points="318.12,-315.5 328.12,-312 318.12,-308.5 318.12,-315.5"/>
</g>
<!-- IndexDB&#45;&gt;StateManager -->
<g id="edge10" class="edge">
<title>IndexDB&#45;&gt;StateManager</title>
<path fill="none" stroke="black" d="M172.5,-73.31C172.5,-73.31 172.5,-134.86 172.5,-134.86"/>
<polygon fill="black" stroke="black" points="169,-134.86 172.5,-144.86 176,-134.86 169,-134.86"/>
<text text-anchor="middle" x="248" y="-107" font-family="Helvetica,sans-Serif" font-size="10.00" fill="#555555">read/write cached data</text>
</g>
<!-- Gmail -->
<g id="node6" class="node">
<title>Gmail</title>
<polygon fill="#dae8fc" stroke="#7ea6e0" points="470.5,-728 355.5,-728 355.5,-670 470.5,-670 470.5,-728"/>
<text text-anchor="middle" x="413" y="-695.9" font-family="Helvetica,sans-Serif" font-size="12.00">Gmail</text>
</g>
<!-- AppScript -->
<g id="node7" class="node">
<title>AppScript</title>
<polygon fill="#dae8fc" stroke="#7ea6e0" points="470.5,-599 355.5,-599 355.5,-541 470.5,-541 470.5,-599"/>
<text text-anchor="middle" x="413" y="-566.9" font-family="Helvetica,sans-Serif" font-size="12.00">AppScript</text>
</g>
<!-- Gmail&#45;&gt;AppScript -->
<g id="edge11" class="edge">
<title>Gmail&#45;&gt;AppScript</title>
<path fill="none" stroke="black" d="M413,-669.73C413,-669.73 413,-609.16 413,-609.16"/>
<polygon fill="black" stroke="black" points="416.5,-609.16 413,-599.16 409.5,-609.16 416.5,-609.16"/>
<text text-anchor="middle" x="441.5" y="-632" font-family="Helvetica,sans-Serif" font-size="10.00" fill="#555555">fetches emails</text>
</g>
<!-- CloudFunctions -->
<g id="node8" class="node">
<title>CloudFunctions</title>
<polygon fill="#d5e8d4" stroke="#82b366" points="470.5,-470 355.5,-470 355.5,-412 470.5,-412 470.5,-470"/>
<text text-anchor="middle" x="413" y="-437.9" font-family="Helvetica,sans-Serif" font-size="12.00">Cloud Functions</text>
</g>
<!-- AppScript&#45;&gt;CloudFunctions -->
<g id="edge12" class="edge">
<title>AppScript&#45;&gt;CloudFunctions</title>
<path fill="none" stroke="black" d="M413,-540.73C413,-540.73 413,-480.16 413,-480.16"/>
<polygon fill="black" stroke="black" points="416.5,-480.16 413,-470.16 409.5,-480.16 416.5,-480.16"/>
<text text-anchor="middle" x="432" y="-503" font-family="Helvetica,sans-Serif" font-size="10.00" fill="#555555">invokes</text>
</g>
<!-- CloudFunctions&#45;&gt;FirestoreDB -->
<g id="edge13" class="edge">
<title>CloudFunctions&#45;&gt;FirestoreDB</title>
<path fill="none" stroke="black" d="M399.5,-411.73C399.5,-411.73 399.5,-342.22 399.5,-342.22"/>
<polygon fill="black" stroke="black" points="403,-342.22 399.5,-332.22 396,-342.22 403,-342.22"/>
<text text-anchor="middle" x="463" y="-374" font-family="Helvetica,sans-Serif" font-size="10.00" fill="#555555">writes expense data</text>
</g>
<!-- FirestoreDB&#45;&gt;StateManager -->
<g id="edge8" class="edge">
<title>FirestoreDB&#45;&gt;StateManager</title>
<path fill="none" stroke="black" d="M328.16,-293C284.41,-293 231.83,-293 231.83,-293 231.83,-293 231.83,-213.11 231.83,-213.11"/>
<polygon fill="black" stroke="black" points="235.33,-213.11 231.83,-203.11 228.33,-213.11 235.33,-213.11"/>
<text text-anchor="middle" x="307.5" y="-236" font-family="Helvetica,sans-Serif" font-size="10.00" fill="#555555">read/write data</text>
</g>
</g>
</svg>
